<svg xmlns="http://www.w3.org/2000/svg" viewBox="0 0 360.25 640"><defs><style>.cls-1{fill:#90b9f7;}.cls-2{fill:#fff;}.cls-3{font-size:32px;font-family:Montserrat-Regular, Montserrat;}.cls-11,.cls-3{fill:#1b3164;}.cls-3,.cls-7{letter-spacing:0.08em;}.cls-4{letter-spacing:0.07em;}.cls-5{letter-spacing:0.08em;}.cls-6{letter-spacing:0.06em;}.cls-8{letter-spacing:0.08em;}.cls-9{letter-spacing:0.08em;}.cls-10{fill:none;}.cls-12{fill:#33a0ba;}</style></defs><title>GCMobile</title><g id="Layer_2" data-name="Layer 2"><g id="Layer_1-2" data-name="Layer 1"><rect class="cls-1" x="0.25" width="360" height="640"/><path class="cls-2" d="M0,640c123-53.31,209-175.78,209-318.35S123,56.6,0,3.3"/><text class="cls-3" transform="translate(56.75 430)">Gulfb<tspan class="cls-4" x="100.22" y="0">r</tspan><tspan class="cls-5" x="115.36" y="0">idge</tspan><tspan class="cls-6"><tspan x="0" y="38.4">C</tspan><tspan class="cls-7" x="24.83" y="38.4">onsu</tspan><tspan class="cls-8" x="113.98" y="38.4">l</tspan><tspan class="cls-7" x="125.21" y="38.4">ti</tspan><tspan class="cls-9" x="151.93" y="38.4">n</tspan><tspan class="cls-5" x="176.22" y="38.4">g</tspan></tspan></text><path class="cls-10" d="M111.76,320a20,20,0,0,1-.4,4c-.1.48-.21.95-.35,1.41a20,20,0,0,1-16.88,14.47,20.66,20.66,0,0,1-2.37.14,19.59,19.59,0,0,1-3.18-.26A20,20,0,0,1,72.3,324.62a19.54,19.54,0,0,1-.54-4.62,20,20,0,1,1,40,0Z"/><path class="cls-10" d="M111.76,320a20,20,0,0,1-.4,4v1.61l-.35-.2a20,20,0,0,1-16.88,14.47,20.66,20.66,0,0,1-2.37.14,19.59,19.59,0,0,1-3.18-.26A20,20,0,0,1,72.3,324.62a19.54,19.54,0,0,1-.54-4.62,20,20,0,1,1,40,0Z"/><path class="cls-10" d="M131.76,319.6a40.51,40.51,0,0,1-.4,5.65V314A40.51,40.51,0,0,1,131.76,319.6Z"/><path class="cls-10" d="M94.13,339.86a20.66,20.66,0,0,1-2.37.14,19.59,19.59,0,0,1-3.18-.26A21,21,0,0,1,91,339.6,19.47,19.47,0,0,1,94.13,339.86Z"/><path class="cls-10" d="M71.36,355.62v4H71A19.33,19.33,0,0,1,71.36,355.62Z"/><path class="cls-10" d="M72.3,324.62a20,20,0,0,0,16.28,15.12,19.59,19.59,0,0,0,3.18.26,20.66,20.66,0,0,0,2.37-.14A20,20,0,0,0,111,325.39"/><path class="cls-10" d="M71.36,355.62v4H71A19.33,19.33,0,0,1,71.36,355.62Z"/><path class="cls-10" d="M71.7,354.21c-.13.46-.25.93-.34,1.41V354Z"/><path class="cls-10" d="M191.76,360a20,20,0,0,1-20,20h-.4a18.44,18.44,0,0,1-3.59-.39,20,20,0,0,1-16-19.6,19.63,19.63,0,0,1,.63-5,20,20,0,0,1,38.74,0c.08.34.16.67.23,1a19.24,19.24,0,0,1,.39,3.58C191.76,359.74,191.76,359.86,191.76,360Z"/><path class="cls-10" d="M191.76,360a20,20,0,0,1-20,20h-.4a18.44,18.44,0,0,1-3.59-.39,20,20,0,0,1-16-19.6,19.63,19.63,0,0,1,.63-5,20,20,0,0,1,38.74,0l.23-.14V356a19.24,19.24,0,0,1,.39,3.58C191.76,359.74,191.76,359.86,191.76,360Z"/><path class="cls-10" d="M152.34,324.41a40,40,0,0,1,38.73.39c.11-.4.21-.81.29-1.22a20,20,0,0,0-19.6-24h-.4"/><path class="cls-10" d="M152.39,355a20,20,0,0,1,38.74,0"/><path class="cls-10" d="M191.76,319.6a20,20,0,0,1-.4,4V325l-.29-.16a40,40,0,0,0-38.73-.39c-.33.17-.65.36-1,.55V299.6h20.4A20,20,0,0,1,191.76,319.6Z"/><path class="cls-10" d="M91.76,279.6h0Z"/><path class="cls-11" d="M111.36,279.6v5.14a39.64,39.64,0,0,0-19.6-5.14Z"/><path class="cls-11" d="M211.75,319.6h-.39v40a40,40,0,0,0-20-34.64v-1.38a20,20,0,0,0-19.6-24h-20.4v-20h20V280h.4a40,40,0,0,1,40,39.6Z"/><path class="cls-11" d="M71.36,354v1.61a19.33,19.33,0,0,0-.4,4H51.36v-40h.4A40.06,40.06,0,0,0,71.36,354Z"/><path class="cls-10" d="M191.36,356a19.24,19.24,0,0,1,.39,3.58h-.39Z"/><path class="cls-10" d="M111.76,320a20,20,0,0,1-.4,4v-8A20,20,0,0,1,111.76,320Z"/><path class="cls-1" d="M111.36,279.6v5.14a39.64,39.64,0,0,0-19.6-5.14h-.4a40,40,0,0,0-20,74.4l.34.2a40,40,0,0,0,38.71.77,19.54,19.54,0,0,1,.55,4.62,20,20,0,0,1-40,0H51.36v-5.25A39,39,0,0,0,51,360a40,40,0,0,0,40,40,40.51,40.51,0,0,0,5.65-.4A40,40,0,0,0,131,360c0-.14,0-.26,0-.4h.41v-80Zm0,44.38v1.61l-.35-.2a20,20,0,0,1-16.88,14.47,20.66,20.66,0,0,1-2.37.14,19.59,19.59,0,0,1-3.18-.26A20,20,0,0,1,72.3,324.62a19.54,19.54,0,0,1-.54-4.62,20,20,0,1,1,39.6,4Z"/><path class="cls-11" d="M171.36,399.6H96.61a40,40,0,0,0,29.21-20h10.9A40,40,0,0,0,171.36,399.6Z"/><path class="cls-10" d="M171.36,379.6V380a18.44,18.44,0,0,1-3.59-.39Z"/><path class="cls-12" d="M206.31,340.15A40.08,40.08,0,0,0,191.36,325l-.29-.16a40,40,0,0,0-38.73-.39c-.33.17-.65.36-1,.55V279.6h-20V314a40.1,40.1,0,0,1,0,11.3V359.6a40,40,0,1,0,74.95-19.45ZM171.76,380h-.4a18.44,18.44,0,0,1-3.59-.39,20,20,0,0,1-16-19.6,19.63,19.63,0,0,1,.63-5,20,20,0,0,1,38.74,0l.23-.14V356a19.24,19.24,0,0,1,.39,3.58c0,.14,0,.26,0,.4A20,20,0,0,1,171.76,380Z"/></g></g></svg>