<svg xmlns="http://www.w3.org/2000/svg" xmlns:xlink="http://www.w3.org/1999/xlink" viewBox="0 0 496.9 496.9"><defs><style>.cls-1{fill:none;}.cls-2{fill:#33a0ba;}.cls-3{fill:#1b3164;}.cls-4{fill:#cdcdf7;}.cls-5{fill:#8181e2;}.cls-6{fill:#acacdd;}.cls-7{fill:#c0c6ff;}.cls-8{clip-path:url(#clip-path);}.cls-25,.cls-9{fill:#fff;}.cls-10{fill:#3c3592;}.cls-11{fill:#48ede7;}.cls-12{clip-path:url(#clip-path-2);}.cls-13{clip-path:url(#clip-path-3);}.cls-14{fill:#e3e3fc;}.cls-15{fill:#a5afef;}.cls-16{clip-path:url(#clip-path-4);}.cls-17{clip-path:url(#clip-path-5);}.cls-18{clip-path:url(#clip-path-6);}.cls-19{fill:#90b9f7;}.cls-20{clip-path:url(#clip-path-7);}.cls-21{clip-path:url(#clip-path-8);}.cls-22{clip-path:url(#clip-path-9);}.cls-23{fill:#424284;}.cls-24{fill:#28287f;}.cls-25{opacity:0.61;isolation:isolate;}.cls-26{fill:#6262cc;}.cls-27{fill:#9494f7;}.cls-28{fill:#777ce0;}.cls-29{fill:#4f4f99;}.cls-30{fill:#1a1a59;}.cls-31{clip-path:url(#clip-path-10);}</style><clipPath id="clip-path"><path class="cls-1" d="M357.2,95.7c0-7.5,5.3-10.6,11.9-6.8s11.8,13,11.8,20.5-5.3,10.6-11.8,6.8S357.2,103.2,357.2,95.7Z"/></clipPath><clipPath id="clip-path-2"><path class="cls-1" d="M357.2,149.3c0-7.5,5.3-10.6,11.9-6.8s11.8,13,11.8,20.5-5.3,10.6-11.8,6.8S357.2,156.8,357.2,149.3Z"/></clipPath><clipPath id="clip-path-3"><path class="cls-1" d="M357.2,200.3c0-7.5,5.3-10.6,11.9-6.8s11.8,13,11.8,20.5-5.3,10.6-11.8,6.8S357.2,207.8,357.2,200.3Z"/></clipPath><clipPath id="clip-path-4"><path class="cls-1" d="M294,143.5c0-7.5,5.3-10.6,11.8-6.8s11.9,13,11.9,20.5-5.3,10.6-11.9,6.8S294,151,294,143.5Z"/></clipPath><clipPath id="clip-path-5"><path class="cls-1" d="M294,197.1c0-7.5,5.3-10.6,11.8-6.8s11.9,13,11.9,20.5-5.3,10.6-11.9,6.8S294,204.6,294,197.1Z"/></clipPath><clipPath id="clip-path-6"><path class="cls-1" d="M294,248.1c0-7.5,5.3-10.6,11.8-6.8s11.9,13,11.9,20.5-5.3,10.6-11.9,6.8S294,255.6,294,248.1Z"/></clipPath><clipPath id="clip-path-7"><path class="cls-1" d="M229.6,232c0-7.5,5.3-10.6,11.9-6.8s11.8,13,11.8,20.5-5.3,10.6-11.8,6.8S229.6,239.5,229.6,232Z"/></clipPath><clipPath id="clip-path-8"><path class="cls-1" d="M229.6,283c0-7.5,5.3-10.6,11.9-6.8s11.8,13,11.8,20.5-5.3,10.6-11.8,6.8S229.6,290.5,229.6,283Z"/></clipPath><clipPath id="clip-path-9"><path class="cls-1" d="M229.6,178.4c0-7.5,5.3-10.6,11.9-6.8s11.8,13,11.8,20.5-5.3,10.6-11.8,6.8S229.6,185.9,229.6,178.4Z"/></clipPath><clipPath id="clip-path-10"><path class="cls-1" d="M146.6,292.6c0-7.5,5.3-10.6,11.9-6.8s11.9,13,11.9,20.5-5.3,10.6-11.9,6.8S146.6,300.1,146.6,292.6Z"/></clipPath></defs><title>img2</title><g id="Layer_2" data-name="Layer 2"><g id="Layer_1-2" data-name="Layer 1"><rect class="cls-2" width="496.9" height="496.9"/><path class="cls-3" d="M156.6,235.1c6.5,3.8,17.2,3.8,23.7,0s6.5-9.9,0-13.7-17.2-3.8-23.7,0S150.1,231.4,156.6,235.1Z"/><path class="cls-3" d="M53.2,287.8c6.5,3.8,17.2,3.8,23.7,0s6.5-9.9,0-13.7-17.2-3.8-23.7,0S46.7,284,53.2,287.8Z"/><path class="cls-3" d="M423.8,338.9c6.5,3.8,17.2,3.8,23.7,0s6.5-9.9,0-13.7-17.2-3.8-23.7,0S417.3,335.1,423.8,338.9Z"/><path class="cls-3" d="M29.5,350.6c6.5,3.8,17.2,3.8,23.7,0s6.5-9.9,0-13.7-17.2-3.8-23.7,0S23,346.8,29.5,350.6Z"/><path class="cls-3" d="M195.2,412.1c15.1,8.7,39.8,8.7,54.9,0s15.1-22.9,0-31.6-39.8-8.7-54.9,0S180.1,403.4,195.2,412.1Z"/><path class="cls-4" d="M347.1,79.7c.3-17.1,14.3-41.1,33.6-38.6L481.3,97.7l-34,37.2C447.4,134.9,347.1,82.6,347.1,79.7Z"/><path class="cls-5" d="M326.2,231.6l-.1,3.5a19.09,19.09,0,0,0,.6,3.3,6.75,6.75,0,0,0,2.3,3l98.1,56.9a6.69,6.69,0,0,1-2.9-4.4,28.11,28.11,0,0,1,0-5.8Z"/><path class="cls-4" d="M445,133.3,347.1,79.6,347,223.9c-.6,6.4-5.1,13.9-10.4,16.9a9.58,9.58,0,0,1-4.9,1.4L424,291.3c0,6.7,4.7,9.4,10.5,6S445,285.8,445,279.1a16.35,16.35,0,0,0-.2-2.2Z"/><polygon class="cls-6" points="385.4 102 385.4 103.1 432.8 130.4 432.8 129.4 385.4 102"/><polygon class="cls-6" points="385.4 105.5 385.4 106.5 432.8 133.9 432.8 132.8 385.4 105.5"/><polygon class="cls-6" points="385.4 108.9 385.4 110 432.8 137.3 432.8 136.3 385.4 108.9"/><polygon class="cls-6" points="385.4 112.3 385.4 113.4 432.8 140.8 432.8 139.7 385.4 112.3"/><polygon class="cls-6" points="385.4 115.8 385.4 116.8 432.8 144.2 432.8 143.1 385.4 115.8"/><polygon class="cls-6" points="385.4 119.2 385.4 120.3 432.8 147.6 432.8 146.6 385.4 119.2"/><polygon class="cls-6" points="385.4 122.7 385.4 123.7 400.7 132.6 400.7 131.5 385.4 122.7"/><polygon class="cls-6" points="385.4 95.7 385.4 98.6 403.3 108.9 403.3 106 385.4 95.7"/><path class="cls-7" d="M357.2,95.7c0-7.5,5.3-10.6,11.9-6.8s11.8,13,11.8,20.5-5.3,10.6-11.8,6.8S357.2,103.2,357.2,95.7Z"/><path class="cls-6" d="M357.2,95.7c0-7.5,5.3-10.6,11.9-6.8s11.8,13,11.8,20.5-5.3,10.6-11.8,6.8S357.2,103.2,357.2,95.7Z"/><g class="cls-8"><path class="cls-9" d="M369.4,107.2c3,1.8,5.5.3,5.5-3.2a12.48,12.48,0,0,0-5.5-9.6c-3-1.8-5.5-.3-5.5,3.2A11.94,11.94,0,0,0,369.4,107.2Z"/><path class="cls-10" d="M371.8,98.9c-.9,1.5-3.9,1.2-6,0a10,10,0,0,1-2-1.6c.1-3.3,2.5-4.7,5.5-2.9a12.61,12.61,0,0,1,5.4,8.1l-.5-.3A4.18,4.18,0,0,1,371.8,98.9Z"/><polygon class="cls-9" points="371.6 106 371.6 111 367.8 108.8 367.8 103.7 371.6 106"/><path class="cls-10" d="M360.4,111a7.74,7.74,0,0,1,.7-1.6,5,5,0,0,1,1.4-1.5,5.25,5.25,0,0,1,3-.6l1.2.2h.2c.2.1.5.1.7.2l3.6,1.9a13,13,0,0,1,6.8,11.2l.1,3.9-18.4-10A22,22,0,0,1,360.4,111Z"/></g><polygon class="cls-11" points="388.4 128.3 389.4 131.1 391.4 132.8 389.9 133.4 390.3 136 388.4 133.6 386.6 133.5 386.9 131.4 385.4 128.7 387.5 129.8 388.4 128.3"/><polygon class="cls-11" points="396.1 132.7 397 135.5 399.1 137.2 397.6 137.9 397.9 140.4 396.1 138.1 394.2 137.9 394.6 135.8 393.1 133.1 395.2 134.2 396.1 132.7"/><polygon class="cls-11" points="403.8 137.1 404.7 139.9 406.7 141.7 405.2 142.3 405.6 144.9 403.7 142.5 401.9 142.3 402.3 140.2 400.8 137.5 402.8 138.6 403.8 137.1"/><polygon class="cls-11" points="411.4 141.6 412.3 144.3 414.4 146.1 412.9 146.7 413.2 149.3 411.4 146.9 409.6 146.7 409.9 144.6 408.4 141.9 410.5 143 411.4 141.6"/><polygon class="cls-11" points="419.1 146 420 148.7 422 150.5 420.6 151.1 420.9 153.7 419.1 151.3 417.2 151.1 417.6 149.1 416.1 146.4 418.1 147.4 419.1 146"/><polygon class="cls-6" points="385.4 155.6 385.4 156.7 432.8 184.1 432.8 183 385.4 155.6"/><polygon class="cls-6" points="385.4 159.1 385.4 160.1 432.8 187.5 432.8 186.4 385.4 159.1"/><polygon class="cls-6" points="385.4 162.5 385.4 163.6 432.8 190.9 432.8 189.9 385.4 162.5"/><polygon class="cls-6" points="385.4 165.9 385.4 167 432.8 194.4 432.8 193.3 385.4 165.9"/><polygon class="cls-6" points="385.4 169.4 385.4 170.5 432.8 197.8 432.8 196.8 385.4 169.4"/><polygon class="cls-6" points="385.4 172.8 385.4 173.9 432.8 201.3 432.8 200.2 385.4 172.8"/><polygon class="cls-6" points="385.4 176.3 385.4 177.3 400.7 186.2 400.7 185.1 385.4 176.3"/><polygon class="cls-6" points="385.4 149.3 385.4 152.2 403.3 162.5 403.3 159.6 385.4 149.3"/><path class="cls-7" d="M357.2,149.3c0-7.5,5.3-10.6,11.9-6.8s11.8,13,11.8,20.5-5.3,10.6-11.8,6.8S357.2,156.8,357.2,149.3Z"/><g class="cls-12"><path class="cls-9" d="M369.4,160.8c3,1.8,5.5.3,5.5-3.2a12.48,12.48,0,0,0-5.5-9.6c-3-1.8-5.5-.3-5.5,3.2A11.94,11.94,0,0,0,369.4,160.8Z"/><path class="cls-10" d="M371.8,152.6c-.9,1.5-3.9,1.1-6,0a10,10,0,0,1-2-1.6c.1-3.3,2.5-4.7,5.5-3a12.61,12.61,0,0,1,5.4,8.1l-.5-.3A4.35,4.35,0,0,1,371.8,152.6Z"/><polygon class="cls-9" points="371.6 159.6 371.6 164.6 367.8 162.4 367.8 157.3 371.6 159.6"/><path class="cls-10" d="M360.4,164.6a7.74,7.74,0,0,1,.7-1.6,5,5,0,0,1,1.4-1.5,5.25,5.25,0,0,1,3-.6c.1,0,1.2.2,1.2.2h.2c.2.1.5.1.7.2l3.6,1.9a13,13,0,0,1,6.8,11.2l.1,3.9-18.4-10A22,22,0,0,1,360.4,164.6Z"/></g><polygon class="cls-11" points="388.4 183.4 389.4 186.1 391.4 187.9 389.9 188.5 390.3 191.1 388.4 188.7 386.6 188.6 386.9 186.5 385.4 183.8 387.5 184.9 388.4 183.4"/><polygon class="cls-11" points="396.1 187.8 397 190.6 399.1 192.3 397.6 192.9 397.9 195.5 396.1 193.1 394.2 193 394.6 190.9 393.1 188.2 395.2 189.3 396.1 187.8"/><polygon class="cls-7" points="403.8 192.2 404.7 195 406.7 196.7 405.2 197.4 405.6 199.9 403.7 197.6 401.9 197.4 402.3 195.3 400.8 192.6 402.8 193.7 403.8 192.2"/><polygon class="cls-7" points="411.4 196.6 412.3 199.4 414.4 201.1 412.9 201.8 413.2 204.3 411.4 202 409.6 201.8 409.9 199.7 408.4 197 410.5 198.1 411.4 196.6"/><polygon class="cls-7" points="419.1 201 420 203.8 422 205.6 420.6 206.2 420.9 208.8 419.1 206.4 417.2 206.2 417.6 204.1 416.1 201.4 418.1 202.5 419.1 201"/><polygon class="cls-6" points="385.4 206.7 385.4 207.7 432.8 235.1 432.8 234 385.4 206.7"/><polygon class="cls-6" points="385.4 210.1 385.4 211.2 432.8 238.5 432.8 237.4 385.4 210.1"/><polygon class="cls-6" points="385.4 213.5 385.4 214.6 432.8 242 432.8 240.9 385.4 213.5"/><polygon class="cls-6" points="385.4 217 385.4 218 432.8 245.4 432.8 244.3 385.4 217"/><polygon class="cls-6" points="385.4 220.4 385.4 221.5 432.8 248.8 432.8 247.8 385.4 220.4"/><polygon class="cls-6" points="385.4 223.9 385.4 224.9 432.8 252.3 432.8 251.2 385.4 223.9"/><polygon class="cls-6" points="385.4 227.3 385.4 228.4 400.7 237.2 400.7 236.2 385.4 227.3"/><polygon class="cls-6" points="385.4 200.3 385.4 203.2 403.3 213.6 403.3 210.7 385.4 200.3"/><path class="cls-7" d="M357.2,200.3c0-7.5,5.3-10.6,11.9-6.8s11.8,13,11.8,20.5-5.3,10.6-11.8,6.8S357.2,207.8,357.2,200.3Z"/><g class="cls-13"><path class="cls-9" d="M369.4,211.8c3,1.8,5.5.3,5.5-3.2a12.48,12.48,0,0,0-5.5-9.6c-3-1.8-5.5-.3-5.5,3.2A11.8,11.8,0,0,0,369.4,211.8Z"/><path class="cls-10" d="M371.8,203.6c-.9,1.5-3.9,1.1-6,0a10,10,0,0,1-2-1.6c.1-3.3,2.5-4.7,5.5-2.9a12.61,12.61,0,0,1,5.4,8.1l-.5-.3A4.51,4.51,0,0,1,371.8,203.6Z"/><polygon class="cls-9" points="371.6 210.6 371.6 215.7 367.8 213.4 367.8 208.3 371.6 210.6"/><path class="cls-10" d="M360.4,215.6a7.74,7.74,0,0,1,.7-1.6,5,5,0,0,1,1.4-1.5,5.25,5.25,0,0,1,3-.6c.1,0,1.2.2,1.2.2h.2c.2.1.5.1.7.2l3.6,1.9a13,13,0,0,1,6.8,11.2l.1,3.9-18.4-10A24.09,24.09,0,0,1,360.4,215.6Z"/></g><polygon class="cls-11" points="388.4 233.9 389.4 236.7 391.4 238.4 389.9 239.1 390.3 241.6 388.4 239.3 386.6 239.1 386.9 237 385.4 234.3 387.5 235.4 388.4 233.9"/><polygon class="cls-11" points="396.1 238.4 397 241.1 399.1 242.9 397.6 243.5 397.9 246.1 396.1 243.7 394.2 243.5 394.6 241.4 393.1 238.8 395.2 239.8 396.1 238.4"/><polygon class="cls-11" points="403.8 242.8 404.7 245.5 406.7 247.3 405.2 247.9 405.6 250.5 403.7 248.1 401.9 247.9 402.3 245.9 400.8 243.2 402.8 244.3 403.8 242.8"/><polygon class="cls-7" points="411.4 247.2 412.3 249.9 414.4 251.7 412.9 252.3 413.2 254.9 411.4 252.5 409.6 252.4 409.9 250.3 408.4 247.6 410.5 248.7 411.4 247.2"/><polygon class="cls-7" points="419.1 251.6 420 254.4 422 256.1 420.6 256.7 420.9 259.3 419.1 256.9 417.2 256.8 417.6 254.7 416.1 252 418.1 253.1 419.1 251.6"/><path class="cls-14" d="M284.2,123.6c.3-17.1,14.3-41.1,33.6-38.6l100.6,56.6-34,37.2C384.5,178.8,284.1,126.5,284.2,123.6Z"/><path class="cls-14" d="M382.1,177.2l-97.9-53.6-.1,144.2c-.6,6.4-5.1,13.9-10.4,16.9a9.58,9.58,0,0,1-4.9,1.4L361,335.2c0,6.7,4.7,9.4,10.5,6S382,329.7,382,323a16.35,16.35,0,0,0-.2-2.2Z"/><polygon class="cls-7" points="322.1 149.8 322.1 150.9 369.5 178.3 369.5 177.2 322.1 149.8"/><polygon class="cls-7" points="322.1 153.3 322.1 154.4 369.5 181.7 369.5 180.6 322.1 153.3"/><polygon class="cls-7" points="322.1 156.7 322.1 157.8 369.5 185.1 369.5 184.1 322.1 156.7"/><polygon class="cls-7" points="322.1 160.2 322.1 161.2 369.5 188.6 369.5 187.5 322.1 160.2"/><polygon class="cls-7" points="322.1 163.6 322.1 164.7 369.5 192 369.5 191 322.1 163.6"/><polygon class="cls-7" points="322.1 167 322.1 168.1 369.5 195.5 369.5 194.4 322.1 167"/><polygon class="cls-7" points="322.1 170.5 322.1 171.6 337.5 180.4 337.5 179.4 322.1 170.5"/><polygon class="cls-15" points="322.1 143.5 322.1 146.4 340.1 156.7 340.1 153.9 322.1 143.5"/><path class="cls-7" d="M294,143.5c0-7.5,5.3-10.6,11.8-6.8s11.9,13,11.9,20.5-5.3,10.6-11.9,6.8S294,151,294,143.5Z"/><g class="cls-16"><path class="cls-9" d="M306.1,155c3,1.8,5.5.3,5.5-3.2a12.48,12.48,0,0,0-5.5-9.6c-3-1.8-5.5-.3-5.5,3.2A12.05,12.05,0,0,0,306.1,155Z"/><path class="cls-10" d="M308.5,146.8c-.9,1.5-4,1.1-6,0a10,10,0,0,1-2-1.6c.1-3.3,2.5-4.7,5.5-2.9a12.61,12.61,0,0,1,5.4,8.1l-.5-.3A4.78,4.78,0,0,1,308.5,146.8Z"/><polygon class="cls-9" points="308.4 153.8 308.4 158.9 304.5 156.6 304.5 151.5 308.4 153.8"/><path class="cls-10" d="M297.2,158.8a7.74,7.74,0,0,1,.7-1.6,5,5,0,0,1,1.4-1.5,5.25,5.25,0,0,1,3-.6c.1,0,1.2.2,1.2.2h.2c.2.1.5.1.7.2l3.6,1.9a13,13,0,0,1,6.8,11.2l.1,3.9-18.4-10A15.14,15.14,0,0,1,297.2,158.8Z"/></g><polygon class="cls-11" points="325.2 176.1 326.1 178.9 328.2 180.6 326.7 181.3 327 183.9 325.2 181.5 323.3 181.3 323.7 179.2 322.2 176.5 324.3 177.6 325.2 176.1"/><polygon class="cls-11" points="332.9 180.5 333.8 183.3 335.8 185.1 334.3 185.7 334.7 188.3 332.8 185.9 331 185.7 331.4 183.6 329.9 180.9 331.9 182 332.9 180.5"/><polygon class="cls-11" points="340.5 185 341.4 187.7 343.5 189.5 342 190.1 342.3 192.7 340.5 190.3 338.6 190.1 339 188 337.5 185.4 339.6 186.4 340.5 185"/><polygon class="cls-11" points="348.2 189.4 349.1 192.1 351.1 193.9 349.6 194.5 350 197.1 348.2 194.7 346.3 194.6 346.7 192.5 345.2 189.8 347.2 190.9 348.2 189.4"/><polygon class="cls-11" points="355.8 193.8 356.7 196.6 358.8 198.3 357.3 198.9 357.7 201.5 355.8 199.1 354 199 354.3 196.9 352.8 194.2 354.9 195.3 355.8 193.8"/><polygon class="cls-7" points="322.1 203.5 322.1 204.5 369.5 231.9 369.5 230.8 322.1 203.5"/><polygon class="cls-7" points="322.1 206.9 322.1 208 369.5 235.3 369.5 234.3 322.1 206.9"/><polygon class="cls-7" points="322.1 210.3 322.1 211.4 369.5 238.8 369.5 237.7 322.1 210.3"/><polygon class="cls-7" points="322.1 213.8 322.1 214.8 369.5 242.2 369.5 241.1 322.1 213.8"/><polygon class="cls-7" points="322.1 217.2 322.1 218.3 369.5 245.6 369.5 244.6 322.1 217.2"/><polygon class="cls-7" points="322.1 220.7 322.1 221.7 369.5 249.1 369.5 248 322.1 220.7"/><polygon class="cls-7" points="322.1 224.1 322.1 225.2 337.5 234 337.5 233 322.1 224.1"/><polygon class="cls-15" points="322.1 197.1 322.1 200 340.1 210.4 340.1 207.5 322.1 197.1"/><path class="cls-7" d="M294,197.1c0-7.5,5.3-10.6,11.8-6.8s11.9,13,11.9,20.5-5.3,10.6-11.9,6.8S294,204.6,294,197.1Z"/><g class="cls-17"><path class="cls-9" d="M306.1,208.6c3,1.8,5.5.3,5.5-3.2a12.48,12.48,0,0,0-5.5-9.6c-3-1.8-5.5-.3-5.5,3.2A12.05,12.05,0,0,0,306.1,208.6Z"/><path class="cls-10" d="M308.5,200.4c-.9,1.5-4,1.1-6,0a10,10,0,0,1-2-1.6c.1-3.3,2.5-4.7,5.5-2.9a12.61,12.61,0,0,1,5.4,8.1l-.5-.3A4.78,4.78,0,0,1,308.5,200.4Z"/><polygon class="cls-9" points="308.4 207.4 308.4 212.5 304.5 210.2 304.5 205.1 308.4 207.4"/><path class="cls-10" d="M297.2,212.4a7.74,7.74,0,0,1,.7-1.6,5,5,0,0,1,1.4-1.5,5.25,5.25,0,0,1,3-.6l1.2.2h.2c.2.1.5.1.7.2L308,211a13,13,0,0,1,6.8,11.2l.1,3.9-18.4-10A15.14,15.14,0,0,1,297.2,212.4Z"/></g><polygon class="cls-11" points="325.2 231.2 326.1 234 328.2 235.7 326.7 236.4 327 238.9 325.2 236.6 323.3 236.4 323.7 234.3 322.2 231.6 324.3 232.7 325.2 231.2"/><polygon class="cls-11" points="332.9 235.6 333.8 238.4 335.8 240.1 334.3 240.8 334.7 243.3 332.8 241 331 240.8 331.4 238.7 329.9 236 331.9 237.1 332.9 235.6"/><polygon class="cls-7" points="340.5 240 341.4 242.8 343.5 244.6 342 245.2 342.3 247.8 340.5 245.4 338.6 245.2 339 243.1 337.5 240.4 339.6 241.5 340.5 240"/><polygon class="cls-7" points="348.2 244.4 349.1 247.2 351.1 249 349.6 249.6 350 252.2 348.2 249.8 346.3 249.6 346.7 247.5 345.2 244.9 347.2 245.9 348.2 244.4"/><polygon class="cls-7" points="355.8 248.9 356.7 251.6 358.8 253.4 357.3 254 357.7 256.6 355.8 254.2 354 254 354.3 251.9 352.8 249.3 354.9 250.3 355.8 248.9"/><polygon class="cls-7" points="322.1 254.5 322.1 255.6 369.5 282.9 369.5 281.8 322.1 254.5"/><polygon class="cls-7" points="322.1 257.9 322.1 259 369.5 286.3 369.5 285.3 322.1 257.9"/><polygon class="cls-7" points="322.1 261.4 322.1 262.4 369.5 289.8 369.5 288.7 322.1 261.4"/><polygon class="cls-7" points="322.1 264.8 322.1 265.9 369.5 293.2 369.5 292.1 322.1 264.8"/><polygon class="cls-7" points="322.1 268.2 322.1 269.3 369.5 296.7 369.5 295.6 322.1 268.2"/><polygon class="cls-7" points="322.1 271.7 322.1 272.7 369.5 300.1 369.5 299 322.1 271.7"/><polygon class="cls-7" points="322.1 275.1 322.1 276.2 337.5 285 337.5 284 322.1 275.1"/><polygon class="cls-15" points="322.1 248.1 322.1 251 340.1 261.4 340.1 258.5 322.1 248.1"/><path class="cls-7" d="M294,248.1c0-7.5,5.3-10.6,11.8-6.8s11.9,13,11.9,20.5-5.3,10.6-11.9,6.8S294,255.6,294,248.1Z"/><g class="cls-18"><path class="cls-9" d="M306.1,259.6c3,1.8,5.5.3,5.5-3.2a12.48,12.48,0,0,0-5.5-9.6c-3-1.8-5.5-.3-5.5,3.2A12.05,12.05,0,0,0,306.1,259.6Z"/><path class="cls-10" d="M308.5,251.4c-.9,1.5-4,1.1-6,0a10,10,0,0,1-2-1.6c.1-3.3,2.5-4.7,5.5-2.9a12.61,12.61,0,0,1,5.4,8.1l-.5-.3A4.58,4.58,0,0,1,308.5,251.4Z"/><polygon class="cls-9" points="308.4 258.4 308.4 263.5 304.5 261.2 304.5 256.1 308.4 258.4"/><path class="cls-10" d="M297.2,263.4a7.74,7.74,0,0,1,.7-1.6,5,5,0,0,1,1.4-1.5,5.25,5.25,0,0,1,3-.6l1.2.2h.2c.2.1.5.1.7.2L308,262a13,13,0,0,1,6.8,11.2l.1,3.9-18.4-10A17.15,17.15,0,0,1,297.2,263.4Z"/></g><polygon class="cls-11" points="325.2 281.8 326.1 284.5 328.2 286.3 326.7 286.9 327 289.5 325.2 287.1 323.3 286.9 323.7 284.8 322.2 282.2 324.3 283.2 325.2 281.8"/><polygon class="cls-11" points="332.9 286.2 333.8 288.9 335.8 290.7 334.3 291.3 334.7 293.9 332.8 291.5 331 291.4 331.4 289.3 329.9 286.6 331.9 287.7 332.9 286.2"/><polygon class="cls-11" points="340.5 290.6 341.4 293.3 343.5 295.1 342 295.7 342.3 298.3 340.5 295.9 338.6 295.8 339 293.7 337.5 291 339.6 292.1 340.5 290.6"/><polygon class="cls-7" points="348.2 295 349.1 297.8 351.1 299.5 349.6 300.1 350 302.7 348.2 300.4 346.3 300.2 346.7 298.1 345.2 295.4 347.2 296.5 348.2 295"/><polygon class="cls-7" points="355.8 299.4 356.7 302.2 358.8 303.9 357.3 304.6 357.7 307.1 355.8 304.8 354 304.6 354.3 302.5 352.8 299.8 354.9 300.9 355.8 299.4"/><path class="cls-14" d="M221.2,159.5c.3-17.1,14.3-41.1,33.6-38.6l100.6,56.6-34,37.2C321.5,214.7,221.1,162.4,221.2,159.5Z"/><path class="cls-9" d="M308.5,353l-.3.2L221,303.7c-.6,6.3-5.1,13.9-10.4,16.9a9.58,9.58,0,0,1-4.9,1.4l92.2,49.1c0,6.7,4.7,9.4,10.5,6s10.5-11.5,10.5-18.1S314.3,349.7,308.5,353Z"/><polygon class="cls-14" points="221.2 159.5 221.1 303.7 318.8 360 319.1 213.3 221.2 159.5"/><path class="cls-19" d="M479.5,96.6a9.8,9.8,0,0,0-4.5-.5,24.09,24.09,0,0,0-7.3,2.4c-13.1,6.4-21.4,22.9-22.5,32.5a15.52,15.52,0,0,0-.1,2.3v.3c-.1,3.5,0,8.2,0,8.2h0v6.9l42.2,24.1.1-54.3h0C489.1,102.9,483.7,98.1,479.5,96.6Z"/><path class="cls-19" d="M362.3,340.4l-.1-.2a7.2,7.2,0,0,1-1-2.4,4.87,4.87,0,0,1-.1-1.2,33.89,33.89,0,0,1,.2-4.5h0V198.3h0c1.8-15.6-3.6-20.5-7.8-21.9a9.8,9.8,0,0,0-4.5-.5c-.7.1-1.4.3-2,.4a33.48,33.48,0,0,0-5.3,1.9c-6.4,3.1-11.6,8.6-15.4,14.6-4,6.3-6.5,13-7.1,18-.1.6-.1,1.6-.2,2.7h0v.4c-.1,3.4,0,7.8,0,7.8h0l-.2,85.9V316L364,342.2A9.76,9.76,0,0,1,362.3,340.4Z"/><path class="cls-19" d="M425.3,296.5l-.1-.2a6.67,6.67,0,0,1-.9-2.1v-.1l.1-131.7h0c1.8-15.6-3.6-20.5-7.8-21.9a9.8,9.8,0,0,0-4.5-.5,24.09,24.09,0,0,0-7.3,2.4c-13.1,6.4-21.4,22.9-22.5,32.6a15.52,15.52,0,0,0-.1,2.3v.3c-.1,3.5,0,8.2,0,8.2h0l-.1,78v8.4l45.1,26.2A6.85,6.85,0,0,1,425.3,296.5Z"/><path class="cls-19" d="M299.3,376.3l-.1-.2a6.63,6.63,0,0,1-1.1-3.6,35.4,35.4,0,0,1,.2-4.6l-85.1-49.1-12.9-7.4-.1,3.5a19.09,19.09,0,0,0,.6,3.3,6.75,6.75,0,0,0,2.3,3l98.1,56.9A6.56,6.56,0,0,1,299.3,376.3Z"/><polygon class="cls-7" points="257.8 238.3 257.8 239.4 305.2 266.7 305.2 265.7 257.8 238.3"/><polygon class="cls-7" points="257.8 241.8 257.8 242.8 305.2 270.2 305.2 269.1 257.8 241.8"/><polygon class="cls-7" points="257.8 245.2 257.8 246.3 305.2 273.6 305.2 272.5 257.8 245.2"/><polygon class="cls-7" points="257.8 248.6 257.8 249.7 305.2 277.1 305.2 276 257.8 248.6"/><polygon class="cls-7" points="257.8 252.1 257.8 253.1 305.2 280.5 305.2 279.4 257.8 252.1"/><polygon class="cls-7" points="257.8 255.5 257.8 256.6 305.2 283.9 305.2 282.9 257.8 255.5"/><polygon class="cls-7" points="257.8 259 257.8 260 273.1 268.9 273.1 267.8 257.8 259"/><polygon class="cls-15" points="257.8 232 257.8 234.9 275.7 245.2 275.7 242.3 257.8 232"/><path class="cls-7" d="M229.6,232c0-7.5,5.3-10.6,11.9-6.8s11.8,13,11.8,20.5-5.3,10.6-11.8,6.8S229.6,239.5,229.6,232Z"/><g class="cls-20"><path class="cls-10" d="M240.5,231.3s-8.1-4.9-4.8,12.4l12.3,7.1s3-15.9-3.7-18.3S240.5,231.3,240.5,231.3Z"/><path class="cls-9" d="M241.7,243.4c3.1,1.8,5.5.3,5.5-3.2a12.48,12.48,0,0,0-5.5-9.6c-3-1.8-5.5-.3-5.5,3.2A12.17,12.17,0,0,0,241.7,243.4Z"/><path class="cls-10" d="M244.1,235.2c-.9,1.5-3.9,1.1-6,0a10,10,0,0,1-2-1.6c.1-3.3,2.6-4.7,5.5-3,2.6,1.5,5.3,4.4,5.4,8.1,0-.2-.3-.2-.5-.3A4.46,4.46,0,0,1,244.1,235.2Z"/><polygon class="cls-9" points="244 242.3 244 247.3 240.1 245.1 240.1 240 244 242.3"/><path class="cls-11" d="M232.8,247.3a7.74,7.74,0,0,1,.7-1.6,5,5,0,0,1,1.4-1.5,5.25,5.25,0,0,1,3-.6l1.2.2h.2c.2.1.5.2.7.3l3.6,1.9a13,13,0,0,1,6.8,11.2l.1,3.9-18.4-10A21.39,21.39,0,0,1,232.8,247.3Z"/></g><polygon class="cls-11" points="260.8 266.1 261.7 268.8 263.8 270.6 262.3 271.2 262.6 273.8 260.8 271.4 259 271.2 259.3 269.1 257.8 266.5 259.9 267.5 260.8 266.1"/><polygon class="cls-11" points="268.5 270.5 269.4 273.2 271.5 275 270 275.6 270.3 278.2 268.5 275.8 266.6 275.6 267 273.6 265.5 270.9 267.5 272 268.5 270.5"/><polygon class="cls-7" points="276.1 274.9 277 277.6 279.1 279.4 277.6 280 278 282.6 276.1 280.2 274.3 280.1 274.6 278 273.1 275.3 275.2 276.4 276.1 274.9"/><polygon class="cls-7" points="283.8 279.3 284.7 282.1 286.8 283.8 285.3 284.5 285.6 287 283.8 284.6 281.9 284.5 282.3 282.4 280.8 279.7 282.9 280.8 283.8 279.3"/><polygon class="cls-7" points="291.5 283.7 292.4 286.5 294.4 288.2 292.9 288.9 293.3 291.4 291.4 289.1 289.6 288.9 290 286.8 288.5 284.1 290.5 285.2 291.5 283.7"/><polygon class="cls-7" points="257.8 289.3 257.8 290.4 305.2 317.8 305.2 316.7 257.8 289.3"/><polygon class="cls-7" points="257.8 292.8 257.8 293.8 305.2 321.2 305.2 320.1 257.8 292.8"/><polygon class="cls-7" points="257.8 296.2 257.8 297.3 305.2 324.6 305.2 323.6 257.8 296.2"/><polygon class="cls-7" points="257.8 299.7 257.8 300.7 305.2 328.1 305.2 327 257.8 299.7"/><polygon class="cls-7" points="257.8 303.1 257.8 304.2 305.2 331.5 305.2 330.5 257.8 303.1"/><polygon class="cls-7" points="257.8 306.5 257.8 307.6 305.2 335 305.2 333.9 257.8 306.5"/><polygon class="cls-7" points="257.8 310 257.8 311 273.1 319.9 273.1 318.8 257.8 310"/><polygon class="cls-15" points="257.8 283 257.8 285.9 275.7 296.2 275.7 293.4 257.8 283"/><path class="cls-7" d="M229.6,283c0-7.5,5.3-10.6,11.9-6.8s11.8,13,11.8,20.5-5.3,10.6-11.8,6.8S229.6,290.5,229.6,283Z"/><g class="cls-21"><path class="cls-9" d="M241.7,294.5c3.1,1.8,5.5.3,5.5-3.2a12.48,12.48,0,0,0-5.5-9.6c-3-1.8-5.5-.3-5.5,3.2A12.48,12.48,0,0,0,241.7,294.5Z"/><path class="cls-10" d="M244.1,286.3c-.9,1.5-3.9,1.1-6,0a10,10,0,0,1-2-1.6c.1-3.3,2.6-4.7,5.5-3a12.61,12.61,0,0,1,5.4,8.1l-.5-.3A4.67,4.67,0,0,1,244.1,286.3Z"/><polygon class="cls-9" points="244 293.3 244 298.4 240.1 296.1 240.1 291 244 293.3"/><path class="cls-10" d="M232.8,298.3a7.74,7.74,0,0,1,.7-1.6,5,5,0,0,1,1.4-1.5,5.25,5.25,0,0,1,3-.6l1.2.2h.2c.2.1.5.2.7.3l3.6,1.9a13,13,0,0,1,6.8,11.2l.1,3.9-18.4-10A21.39,21.39,0,0,1,232.8,298.3Z"/></g><polygon class="cls-11" points="260.8 316.6 261.7 319.4 263.8 321.1 262.3 321.8 262.6 324.3 260.8 322 259 321.8 259.3 319.7 257.8 317 259.9 318.1 260.8 316.6"/><polygon class="cls-11" points="268.5 321 269.4 323.8 271.5 325.5 270 326.2 270.3 328.8 268.5 326.4 266.6 326.2 267 324.1 265.5 321.4 267.5 322.5 268.5 321"/><polygon class="cls-11" points="276.1 325.4 277 328.2 279.1 330 277.6 330.6 278 333.2 276.1 330.8 274.3 330.6 274.6 328.5 273.1 325.9 275.2 326.9 276.1 325.4"/><polygon class="cls-7" points="283.8 329.9 284.7 332.6 286.8 334.4 285.3 335 285.6 337.6 283.8 335.2 281.9 335 282.3 332.9 280.8 330.3 282.9 331.3 283.8 329.9"/><polygon class="cls-7" points="291.5 334.3 292.4 337 294.4 338.8 292.9 339.4 293.3 342 291.4 339.6 289.6 339.5 290 337.4 288.5 334.7 290.5 335.8 291.5 334.3"/><polygon class="cls-7" points="257.8 184.7 257.8 185.8 305.2 213.1 305.2 212.1 257.8 184.7"/><polygon class="cls-7" points="257.8 188.1 257.8 189.2 305.2 216.6 305.2 215.5 257.8 188.1"/><polygon class="cls-7" points="257.8 191.6 257.8 192.6 305.2 220 305.2 218.9 257.8 191.6"/><polygon class="cls-7" points="257.8 195 257.8 196.1 305.2 223.4 305.2 222.4 257.8 195"/><polygon class="cls-7" points="257.8 198.5 257.8 199.5 305.2 226.9 305.2 225.8 257.8 198.5"/><polygon class="cls-7" points="257.8 201.9 257.8 203 305.2 230.3 305.2 229.3 257.8 201.9"/><polygon class="cls-7" points="257.8 205.3 257.8 206.4 273.1 215.3 273.1 214.2 257.8 205.3"/><polygon class="cls-15" points="257.8 178.4 257.8 181.2 275.7 191.6 275.7 188.7 257.8 178.4"/><path class="cls-7" d="M229.6,178.4c0-7.5,5.3-10.6,11.9-6.8s11.8,13,11.8,20.5-5.3,10.6-11.8,6.8S229.6,185.9,229.6,178.4Z"/><g class="cls-22"><path class="cls-9" d="M241.7,189.8c3.1,1.8,5.5.3,5.5-3.2a12.48,12.48,0,0,0-5.5-9.6c-3-1.8-5.5-.3-5.5,3.2A12.17,12.17,0,0,0,241.7,189.8Z"/><path class="cls-10" d="M244.1,181.6c-.9,1.5-3.9,1.1-6,0a10,10,0,0,1-2-1.6c.1-3.3,2.6-4.7,5.5-2.9a12.61,12.61,0,0,1,5.4,8.1l-.5-.3A4.85,4.85,0,0,1,244.1,181.6Z"/><polygon class="cls-9" points="244 188.6 244 193.7 240.1 191.4 240.1 186.4 244 188.6"/><path class="cls-10" d="M232.8,193.7a7.74,7.74,0,0,1,.7-1.6,5,5,0,0,1,1.4-1.5,5.25,5.25,0,0,1,3-.6l1.2.1.2.1c.2.1.5.1.7.2l3.6,1.9a13,13,0,0,1,6.8,11.2l.1,3.9-18.4-10A22,22,0,0,1,232.8,193.7Z"/></g><polygon class="cls-11" points="260.8 211 261.7 213.8 263.8 215.5 262.3 216.1 262.6 218.7 260.8 216.3 259 216.2 259.3 214.1 257.8 211.4 259.9 212.5 260.8 211"/><polygon class="cls-11" points="268.5 215.4 269.4 218.2 271.5 219.9 270 220.6 270.3 223.1 268.5 220.8 266.6 220.6 267 218.5 265.5 215.8 267.5 216.9 268.5 215.4"/><polygon class="cls-11" points="276.1 219.8 277 222.6 279.1 224.3 277.6 225 278 227.5 276.1 225.2 274.3 225 274.6 222.9 273.1 220.2 275.2 221.3 276.1 219.8"/><polygon class="cls-11" points="283.8 224.2 284.7 227 286.8 228.8 285.3 229.4 285.6 231.9 283.8 229.6 281.9 229.4 282.3 227.3 280.8 224.6 282.9 225.7 283.8 224.2"/><polygon class="cls-11" points="291.5 228.6 292.4 231.4 294.4 233.2 292.9 233.8 293.3 236.4 291.4 234 289.6 233.8 290 231.7 288.5 229.1 290.5 230.1 291.5 228.6"/><polygon class="cls-10" points="240.4 185.9 240.4 186.6 242.6 187.8 242.5 187 240.4 185.9"/><path class="cls-23" d="M66.9,318.2c17.1,9.9,45.1,9.9,62.2,0s17.1-26,0-35.8-45.1-9.9-62.2,0S49.8,308.4,66.9,318.2Zm5.9-33c13.8-8,36.5-8,50.3,0s13.8,21,0,29-36.4,8-50.3,0-13.8-21,0-29Z"/><path class="cls-24" d="M66.9,320.2c17.1,9.9,45.1,9.9,62.2,0s17.1-26,0-35.8-45.1-9.9-62.2,0S49.8,310.4,66.9,320.2Zm5.9-33c13.8-8,36.5-8,50.3,0s13.8,21,0,29-36.4,8-50.3,0-13.8-21,0-29Z"/><path class="cls-25" d="M72.8,311c13.8,8,36.5,8,50.3,0s13.8-21,0-29-36.4-8-50.3,0S59,303,72.8,311Z"/><path class="cls-26" d="M46.6,331.6c1.5.9,2.8.2,2.8-1.6a6.4,6.4,0,0,0-2.8-4.9c-1.5-.9-2.8-.2-2.8,1.6A6.35,6.35,0,0,0,46.6,331.6Z"/><path class="cls-24" d="M65.5,320.9c1.6.9,2.8.2,2.8-1.6a6.4,6.4,0,0,0-2.8-4.9c-1.5-.9-2.8-.2-2.8,1.6A6.13,6.13,0,0,0,65.5,320.9Z"/><polyline class="cls-24" points="67.7 321 48.5 332 48.5 327.2 44.5 325.1 63.6 314.1"/><path class="cls-27" d="M46.5,333.3c2.4,1.4,4.4.3,4.4-2.5a9.77,9.77,0,0,0-4.4-7.6c-2.4-1.4-4.4-.3-4.4,2.5A9.51,9.51,0,0,0,46.5,333.3Z"/><polyline class="cls-27" points="49.8 333.5 15.1 353.5 15.1 346 8.8 342.7 43.4 322.7"/><path class="cls-24" d="M12.2,353c2.4,1.4,4.4.3,4.4-2.5a9.77,9.77,0,0,0-4.4-7.6c-2.4-1.4-4.4-.3-4.4,2.5A9.77,9.77,0,0,0,12.2,353Z"/><polygon class="cls-23" points="141.9 302.6 141.9 296.9 137.1 302 141.9 302.6"/><path class="cls-28" d="M66.9,315c17.1,9.9,45.1,9.9,62.1,0s17.1-26,0-35.8-45.1-9.9-62.2,0S49.8,305.1,66.9,315Zm5.9-33c13.8-8,36.5-8,50.3,0s13.8,21,0,29-36.4,8-50.3,0S59,290,72.8,282Z"/><path class="cls-29" d="M138.9,245.7l-1.3,81.7a4.11,4.11,0,0,0,2,3.6l89.6,52.8a4,4,0,0,0,5.5-1.4,3.61,3.61,0,0,0,.6-2l1.3-80.8a3.84,3.84,0,0,0-2-3.5L145,242.3a4,4,0,0,0-5.5,1.2A3.5,3.5,0,0,0,138.9,245.7Z"/><path class="cls-10" d="M137.1,246.7l-1.3,81.7a4.11,4.11,0,0,0,2,3.6l89.7,52.8a4,4,0,0,0,6.1-3.4l1.3-80.8a3.84,3.84,0,0,0-2-3.5l-89.6-53.7a4,4,0,0,0-5.5,1.4A2.64,2.64,0,0,0,137.1,246.7Z"/><path class="cls-30" d="M138.2,249.1l-1.3,78.8a3.9,3.9,0,0,0,1.9,3.4l86.4,51a3.92,3.92,0,0,0,5.4-1.4,4.14,4.14,0,0,0,.5-1.9l1.3-77.9a3.9,3.9,0,0,0-1.9-3.4l-86.4-51.8a3.92,3.92,0,0,0-5.4,1.4A3.74,3.74,0,0,0,138.2,249.1Z"/><path class="cls-10" d="M63.7,374l70.6-41.1a4.26,4.26,0,0,1,4.1,0l90,52.3a4,4,0,0,1,0,7l-69.8,40.7a4.07,4.07,0,0,1-4,0L63.7,381a4.07,4.07,0,0,1-1.5-5.5A5.36,5.36,0,0,1,63.7,374Z"/><path class="cls-28" d="M63.7,371.9l70.6-41.1a4.26,4.26,0,0,1,4.1,0l90,52.3a4,4,0,0,1,1.4,5.6,3.76,3.76,0,0,1-1.4,1.4l-69.8,40.7a4.26,4.26,0,0,1-4.1,0L63.7,379a4.07,4.07,0,0,1-1.5-5.5A4.63,4.63,0,0,1,63.7,371.9Z"/><path class="cls-24" d="M96.6,390.1l22.8-13.3a1.48,1.48,0,0,1,1.3,0l29.1,16.9a1.44,1.44,0,0,1,.5,1.8,1.21,1.21,0,0,1-.5.5l-22.6,13.2a1.48,1.48,0,0,1-1.3,0L96.6,392.4a1.41,1.41,0,0,1-.5-1.8A1.21,1.21,0,0,1,96.6,390.1Z"/><polygon class="cls-24" points="129.7 338.9 127.8 340 212.9 389.1 214.9 388 129.7 338.9"/><polygon class="cls-24" points="125.6 341.2 123.7 342.4 208.7 391.5 210.8 390.3 125.6 341.2"/><polygon class="cls-24" points="121.4 343.6 119.5 344.8 204.6 393.9 206.6 392.7 121.4 343.6"/><polygon class="cls-24" points="117.3 345.9 115.4 347.1 200.4 396.2 202.5 395 117.3 345.9"/><polygon class="cls-24" points="113.2 348.3 111.3 349.5 196.3 398.5 198.4 397.4 113.2 348.3"/><polygon class="cls-24" points="109.1 350.6 107.1 351.8 192.2 400.9 194.3 399.8 109.1 350.6"/><polygon class="cls-11" points="145.3 347.8 143.4 349 145.3 350.1 147.4 349 145.3 347.8"/><polygon class="cls-11" points="150.9 365.3 149 366.5 150.9 367.6 153 366.5 150.9 365.3"/><polygon class="cls-11" points="184.4 375.1 182.4 376.3 184.3 377.4 186.4 376.3 184.4 375.1"/><polygon class="cls-11" points="189.5 378 187.5 379.2 189.4 380.3 191.5 379.2 189.5 378"/><polygon class="cls-11" points="131.9 344.9 130 346 134.2 348.5 136.3 347.3 131.9 344.9"/><polygon class="cls-11" points="166 383.5 164.1 384.7 168.3 387.2 170.4 386 166 383.5"/><polygon class="cls-7" points="174.8 299 174.8 300 222.2 327.4 222.2 326.3 174.8 299"/><polygon class="cls-7" points="174.8 302.4 174.8 303.5 222.2 330.9 222.2 329.8 174.8 302.4"/><polygon class="cls-7" points="174.8 305.9 174.8 306.9 222.2 334.3 222.2 333.2 174.8 305.9"/><polygon class="cls-7" points="174.8 309.3 174.8 310.4 222.2 337.7 222.2 336.7 174.8 309.3"/><polygon class="cls-7" points="174.8 312.7 174.8 313.8 222.2 341.2 222.2 340.1 174.8 312.7"/><polygon class="cls-7" points="174.8 316.2 174.8 317.3 222.2 344.6 222.2 343.5 174.8 316.2"/><polygon class="cls-7" points="174.8 319.6 174.8 320.7 190.1 329.5 190.1 328.5 174.8 319.6"/><polygon class="cls-15" points="174.8 292.6 174.8 295.5 192.7 305.9 192.7 303 174.8 292.6"/><path class="cls-7" d="M146.6,292.6c0-7.5,5.3-10.6,11.9-6.8s11.9,13,11.9,20.5-5.3,10.6-11.9,6.8S146.6,300.1,146.6,292.6Z"/><g class="cls-31"><path class="cls-9" d="M158.7,304.1c3,1.8,5.5.3,5.5-3.2a12.48,12.48,0,0,0-5.5-9.6c-3-1.8-5.5-.3-5.5,3.2A12.32,12.32,0,0,0,158.7,304.1Z"/><path class="cls-10" d="M161.2,295.9c-.9,1.5-3.9,1.1-6,0a10,10,0,0,1-2-1.6c.1-3.3,2.6-4.7,5.5-3a12.61,12.61,0,0,1,5.4,8.1l-.5-.3A4.18,4.18,0,0,1,161.2,295.9Z"/><polygon class="cls-9" points="161 302.9 161 308 157.1 305.7 157.1 300.6 161 302.9"/><path class="cls-10" d="M149.8,307.9a7.74,7.74,0,0,1,.7-1.6,4,4,0,0,1,1.4-1.5,5.25,5.25,0,0,1,3-.6l1.2.1h.2c.2.1.5.1.7.2l3.6,1.9a13,13,0,0,1,6.8,11.2l.1,3.9-18.4-10A28.31,28.31,0,0,1,149.8,307.9Z"/></g><polygon class="cls-11" points="177.8 326.3 178.7 329 180.8 330.8 179.3 331.4 179.7 334 177.8 331.6 176 331.4 176.3 329.4 174.8 326.7 176.9 327.8 177.8 326.3"/><polygon class="cls-11" points="185.5 330.7 186.4 333.4 188.5 335.2 187 335.8 187.3 338.4 185.5 336 183.6 335.9 184 333.8 182.5 331.1 184.6 332.2 185.5 330.7"/><polygon class="cls-11" points="193.1 335.1 194.1 337.9 196.1 339.6 194.6 340.2 195 342.8 193.1 340.4 191.3 340.3 191.6 338.2 190.1 335.5 192.2 336.6 193.1 335.1"/><polygon class="cls-7" points="200.8 339.5 201.7 342.3 203.8 344 202.3 344.6 202.6 347.2 200.8 344.9 198.9 344.7 199.3 342.6 197.8 339.9 199.9 341 200.8 339.5"/><polygon class="cls-7" points="208.5 343.9 209.4 346.7 211.4 348.4 209.9 349.1 210.3 351.6 208.4 349.3 206.6 349.1 207 347 205.5 344.3 207.5 345.4 208.5 343.9"/></g></g></svg>