<svg xmlns="http://www.w3.org/2000/svg" viewBox="0 0 360 640"><defs><style>.cls-1{fill:#a0f1da;}.cls-2{fill:#fff;}.cls-3{fill:none;}.cls-4,.cls-6{fill:#0377a8;}.cls-5{fill:#3ec4d6;}.cls-6{font-size:30px;font-family:Montserrat-ExtraBold, Montserrat;font-weight:700;}.cls-10,.cls-6{letter-spacing:0.2em;}.cls-7{letter-spacing:0.19em;}.cls-8{letter-spacing:0.2em;}.cls-9{letter-spacing:0.18em;}.cls-11{letter-spacing:0.25em;}.cls-12{letter-spacing:0.21em;}.cls-13{letter-spacing:0.2em;}</style></defs><title>mobileBg_1</title><g id="Layer_2" data-name="Layer 2"><g id="Layer_1-2" data-name="Layer 1"><rect class="cls-1" width="360" height="640"/><path class="cls-2" d="M189.5,322.5C189.5,460.37,114.66,580.06,5,640H0V2.35C112.41,61.36,189.5,182.57,189.5,322.5Z"/><path class="cls-3" d="M92,303.81a19.4,19.4,0,0,1-.4,4,13.77,13.77,0,0,1-.34,1.41,20,20,0,0,1-16.88,14.46,18.78,18.78,0,0,1-2.38.15,19.47,19.47,0,0,1-3.17-.26,20,20,0,0,1-16.28-15.13,19.46,19.46,0,0,1-.55-4.61,20,20,0,0,1,39.6-4A19.5,19.5,0,0,1,92,303.81Z"/><path class="cls-3" d="M92,303.81a19.4,19.4,0,0,1-.4,4v1.61c-.11-.06-.22-.14-.34-.2a20,20,0,0,1-16.88,14.46,18.78,18.78,0,0,1-2.38.15,19.47,19.47,0,0,1-3.17-.26,20,20,0,0,1-16.28-15.13,19.46,19.46,0,0,1-.55-4.61,20,20,0,0,1,39.6-4A19.5,19.5,0,0,1,92,303.81Z"/><path class="cls-3" d="M112,303.41a39,39,0,0,1-.4,5.65v-11.3A39,39,0,0,1,112,303.41Z"/><path class="cls-3" d="M74.38,323.66a18.78,18.78,0,0,1-2.38.15,19.47,19.47,0,0,1-3.17-.26,20.26,20.26,0,0,1,5.55.11Z"/><path class="cls-3" d="M51.6,339.42v4h-.4A20.22,20.22,0,0,1,51.6,339.42Z"/><path class="cls-3" d="M52.55,308.42a20,20,0,0,0,16.28,15.13,19.47,19.47,0,0,0,3.17.26,18.78,18.78,0,0,0,2.38-.15A20,20,0,0,0,91.26,309.2"/><path class="cls-3" d="M51.6,339.42v4h-.4A20.22,20.22,0,0,1,51.6,339.42Z"/><path class="cls-3" d="M52,338c-.14.46-.25.93-.35,1.4v-1.6Z"/><path class="cls-3" d="M172,343.81a20,20,0,0,1-20,20h-.4a19.24,19.24,0,0,1-3.58-.39,20,20,0,0,1-16-19.6,19.63,19.63,0,0,1,.64-5,20,20,0,0,1,38.73,0c.09.33.17.67.23,1a19.25,19.25,0,0,1,.4,3.59Z"/><path class="cls-3" d="M172,343.81a20,20,0,0,1-20,20h-.4a19.24,19.24,0,0,1-3.58-.39,20,20,0,0,1-16-19.6,19.63,19.63,0,0,1,.64-5,20,20,0,0,1,38.73,0l.23-.14v1.15a19.25,19.25,0,0,1,.4,3.59Z"/><path class="cls-3" d="M132.59,308.22a40,40,0,0,1,38.73.39c.11-.4.2-.81.28-1.22a19.4,19.4,0,0,0,.4-4,20,20,0,0,0-20-20h-.4"/><path class="cls-3" d="M132.64,338.81a20,20,0,0,1,38.73,0"/><path class="cls-3" d="M172,303.41a19.4,19.4,0,0,1-.4,4v1.38l-.28-.16a40,40,0,0,0-38.73-.39c-.33.17-.66.36-1,.55V283.41H152A20,20,0,0,1,172,303.41Z"/><path class="cls-3" d="M72,263.41h0Z"/><path class="cls-4" d="M91.6,263.41v5.13A39.74,39.74,0,0,0,72,263.41Z"/><path class="cls-4" d="M192,303.41h-.4v40a40,40,0,0,0-20-34.64v-1.38a19.4,19.4,0,0,0,.4-4,20,20,0,0,0-20-20H131.6v-20h20v.41h.4a40,40,0,0,1,40,39.6Z"/><path class="cls-4" d="M51.6,337.82v1.6a20.22,20.22,0,0,0-.4,4H31.6v-40H32a40.06,40.06,0,0,0,19.6,34.41Z"/><path class="cls-3" d="M171.6,339.82a19.25,19.25,0,0,1,.4,3.59h-.4Z"/><path class="cls-3" d="M92,303.81a19.4,19.4,0,0,1-.4,4v-8A19.5,19.5,0,0,1,92,303.81Z"/><path class="cls-1" d="M91.6,263.41v5.13A39.74,39.74,0,0,0,72,263.41h-.4a40,40,0,0,0-20,74.4l.35.2a40,40,0,0,0,38.71.77,19.54,19.54,0,0,1,.54,4.62,20,20,0,0,1-40,0H31.6v-5.25a40.51,40.51,0,0,0-.4,5.65,40,40,0,0,0,40,40,40.51,40.51,0,0,0,5.65-.4,40,40,0,0,0,34.35-39.6v-.4h.4v-80Zm0,44.38v1.61c-.11-.06-.22-.14-.34-.2a20,20,0,0,1-16.88,14.46,18.78,18.78,0,0,1-2.38.15,19.47,19.47,0,0,1-3.17-.26,20,20,0,0,1-16.28-15.13,19.46,19.46,0,0,1-.55-4.61,20,20,0,0,1,39.6-4,20.05,20.05,0,0,1,0,8Z"/><path class="cls-4" d="M151.6,383.41H76.85a40,40,0,0,0,29.22-20H117A40,40,0,0,0,151.6,383.41Z"/><path class="cls-3" d="M151.6,363.41v.39a19.24,19.24,0,0,1-3.58-.39Z"/><path class="cls-5" d="M186.56,324a40,40,0,0,0-15-15.19l-.28-.16a40,40,0,0,0-38.73-.39c-.33.17-.66.36-1,.55V263.41h-20v34.35a40.1,40.1,0,0,1,0,11.3v34.35a40,40,0,1,0,75-19.45ZM152,363.81h-.4a19.24,19.24,0,0,1-3.58-.39,20,20,0,0,1-16-19.6,19.63,19.63,0,0,1,.64-5,20,20,0,0,1,38.73,0l.23-.14v1.15a19.25,19.25,0,0,1,.4,3.59v.4A20,20,0,0,1,152,363.81Z"/><path class="cls-3" d="M92,304a20.12,20.12,0,0,1-.4,4c-.1.47-.21.95-.35,1.41a20,20,0,0,1-16.88,14.46A18.62,18.62,0,0,1,72,324a19.59,19.59,0,0,1-3.18-.26,20,20,0,0,1-16.28-15.13A19.46,19.46,0,0,1,52,304a20,20,0,0,1,39.6-4A20.22,20.22,0,0,1,92,304Z"/><path class="cls-3" d="M92,304a20.12,20.12,0,0,1-.4,4v1.61l-.35-.2a20,20,0,0,1-16.88,14.46A18.62,18.62,0,0,1,72,324a19.59,19.59,0,0,1-3.18-.26,20,20,0,0,1-16.28-15.13A19.46,19.46,0,0,1,52,304a20,20,0,0,1,39.6-4A20.22,20.22,0,0,1,92,304Z"/><path class="cls-3" d="M112,303.61a40.51,40.51,0,0,1-.4,5.65V298A40.51,40.51,0,0,1,112,303.61Z"/><path class="cls-3" d="M74.38,323.86A18.62,18.62,0,0,1,72,324a19.59,19.59,0,0,1-3.18-.26,21,21,0,0,1,2.38-.14A20.65,20.65,0,0,1,74.38,323.86Z"/><path class="cls-3" d="M52.55,308.62a20,20,0,0,0,16.28,15.13A19.59,19.59,0,0,0,72,324a18.62,18.62,0,0,0,2.37-.15A20,20,0,0,0,91.26,309.4"/><path class="cls-3" d="M172,344a20,20,0,0,1-20,20h-.4a19.25,19.25,0,0,1-3.59-.39A20,20,0,0,1,132,344a19.63,19.63,0,0,1,.63-5,20,20,0,0,1,38.74,0c.08.33.16.67.23,1a19.25,19.25,0,0,1,.39,3.59C172,343.74,172,343.87,172,344Z"/><path class="cls-3" d="M172,344a20,20,0,0,1-20,20h-.4a19.25,19.25,0,0,1-3.59-.39A20,20,0,0,1,132,344a19.63,19.63,0,0,1,.63-5,20,20,0,0,1,38.74,0l.23-.14V340a19.25,19.25,0,0,1,.39,3.59C172,343.74,172,343.87,172,344Z"/><path class="cls-3" d="M132.59,308.42a40,40,0,0,1,38.73.39c.11-.4.21-.81.29-1.22a20,20,0,0,0-19.6-24h-.4"/><path class="cls-3" d="M132.64,339a20,20,0,0,1,38.74,0"/><path class="cls-3" d="M172,303.61a20.12,20.12,0,0,1-.4,4V309l-.29-.16a40,40,0,0,0-38.73-.39c-.33.17-.65.36-1,.55V283.61H152A20,20,0,0,1,172,303.61Z"/><path class="cls-3" d="M72,263.61h0Z"/><path class="cls-4" d="M91.61,263.61v5.13A39.74,39.74,0,0,0,72,263.61Z"/><path class="cls-4" d="M192,303.61h-.39v40a40,40,0,0,0-20-34.64v-1.38a20,20,0,0,0-19.6-24h-20.4v-20h20V264h.4a40,40,0,0,1,40,39.6Z"/><path class="cls-4" d="M51.61,338v1.6a19.5,19.5,0,0,0-.4,4H31.61v-40H32A40.06,40.06,0,0,0,51.61,338Z"/><path class="cls-3" d="M92,304a20.12,20.12,0,0,1-.4,4v-8A20.22,20.22,0,0,1,92,304Z"/><path class="cls-1" d="M91.61,263.61v5.13A39.74,39.74,0,0,0,72,263.61h-.4a40,40,0,0,0-20,74.4l.34.2a40,40,0,0,0,38.71.77,19.54,19.54,0,0,1,.55,4.62,20,20,0,0,1-40,0H31.61v-5.25a39,39,0,0,0-.4,5.65,40,40,0,0,0,40,40,40.51,40.51,0,0,0,5.65-.4A40,40,0,0,0,111.21,344c0-.14,0-.27,0-.4h.41v-80Zm0,44.38v1.61l-.35-.2a20,20,0,0,1-16.88,14.46A18.62,18.62,0,0,1,72,324a19.59,19.59,0,0,1-3.18-.26,20,20,0,0,1-16.28-15.13A19.46,19.46,0,0,1,52,304a20,20,0,0,1,39.6-4,20.05,20.05,0,0,1,0,8Z"/><path class="cls-5" d="M186.56,324.16A40,40,0,0,0,171.61,309l-.29-.16a40,40,0,0,0-38.73-.39c-.33.17-.65.36-1,.55V263.61h-20V298a40.1,40.1,0,0,1,0,11.3v34.35a40,40,0,1,0,75-19.45ZM152,364h-.4a19.25,19.25,0,0,1-3.59-.39A20,20,0,0,1,132,344a19.63,19.63,0,0,1,.63-5,20,20,0,0,1,38.74,0l.23-.14V340a19.25,19.25,0,0,1,.39,3.59c0,.13,0,.26,0,.4A20,20,0,0,1,152,364Z"/><text class="cls-6" transform="translate(27.61 420)">Gul<tspan class="cls-7" x="71.25" y="0">f</tspan><tspan x="89.25" y="0">gb</tspan><tspan class="cls-8" x="143.25" y="0">r</tspan><tspan x="162.48" y="0">idge</tspan><tspan class="cls-9"><tspan x="0" y="36">C</tspan><tspan class="cls-10" x="27.63" y="36">onsu</tspan><tspan class="cls-11" x="129.66" y="36">l</tspan><tspan class="cls-10" x="146.67" y="36">ti</tspan><tspan class="cls-12" x="181.47" y="36">n</tspan><tspan class="cls-13" x="208.59" y="36">g</tspan></tspan></text></g></g></svg>